<?xml version="1.0" encoding="utf-8"?>
<!-- Generator: Adobe Illustrator 16.0.0, SVG Export Plug-In . SVG Version: 6.00 Build 0)  -->
<!DOCTYPE svg PUBLIC "-//W3C//DTD SVG 1.1//EN" "http://www.w3.org/Graphics/SVG/1.1/DTD/svg11.dtd">
<svg version="1.1" id="Layer_1" xmlns="http://www.w3.org/2000/svg" xmlns:xlink="http://www.w3.org/1999/xlink" x="0px" y="0px"
	 width="128px" height="128px" viewBox="0 0 128 128" enable-background="new 0 0 128 128" xml:space="preserve">
<path d="M13.724,109.675c-3.369,0.004-6.536-0.636-9.183-2.853c-6.715-5.631-5.87-15.692,1.787-20.243
	c16.44-9.777,32.895-19.53,49.444-29.113c2.767-1.6,4.165-3.223,3.806-6.558c-0.434-4.113,1.717-7.095,5.179-9.174
	c0.61-0.364,1.264-0.643,1.874-1.004c3.146-1.871,4.406-5.604,3.053-8.977c-1.286-3.197-4.743-4.895-8.292-4.095
	c-3.668,0.828-5.122,3.35-5.574,6.861c-0.352,2.761-1.825,4.008-4.12,3.944c-2.349-0.069-4.229-1.918-4.424-4.445
	c-0.063-0.873-0.041-1.784,0.112-2.646c1.268-7.065,7.982-12.819,15.165-13.042c7.353-0.23,13.272,4.113,15.691,11.51
	c2.24,6.833,0.049,13.229-5.982,17.453c-0.729,0.507-1.477,0.981-2.176,1.525c-3.169,2.478-2.981,5.788,0.411,7.779
	c16.96,9.943,33.894,19.921,50.891,29.799c4.146,2.416,6.256,5.99,6.585,10.566c0.501,7.044-5.201,12.675-12.709,12.69
	c-17.009,0.037-34.024,0.011-51.039,0.011C47.393,109.667,30.556,109.66,13.724,109.675 M112.584,100.81
	c0.53,0,1.062-0.029,1.593,0.004c2.071,0.116,3.746-0.546,4.341-2.67c0.594-2.116-0.468-3.474-2.308-4.521
	c-5.769-3.29-11.485-6.674-17.218-10.023c-10.854-6.342-21.727-12.656-32.541-19.067c-1.624-0.96-2.801-1.086-4.525-0.07
	C45.692,74.05,29.386,83.528,13.107,93.04c-0.613,0.355-1.23,0.711-1.795,1.133c-1.35,1.006-1.847,2.359-1.409,3.982
	c0.448,1.645,1.607,2.49,3.283,2.617c0.792,0.063,1.593,0.037,2.393,0.037c16.208,0,32.42,0,48.632,0H112.584z"/>
</svg>
