<?xml version="1.0" encoding="utf-8"?>
<!-- Generator: Adobe Illustrator 16.0.0, SVG Export Plug-In . SVG Version: 6.00 Build 0)  -->
<!DOCTYPE svg PUBLIC "-//W3C//DTD SVG 1.1//EN" "http://www.w3.org/Graphics/SVG/1.1/DTD/svg11.dtd">
<svg version="1.1" id="Layer_1" xmlns="http://www.w3.org/2000/svg" xmlns:xlink="http://www.w3.org/1999/xlink" x="0px" y="0px"
	 width="128px" height="128px" viewBox="0 0 128 128" enable-background="new 0 0 128 128" xml:space="preserve">
<path fill="#292929" d="M62.434,118.906L15.034,65.534c-8.19-9.223-15.455-28.362-7.785-40.31
	C13.724,15.126,24.29,9.094,35.509,9.094c11.802,0,22.242,6.549,28.495,16.529c6.252-9.979,16.689-16.529,28.491-16.529
	c11.219,0,21.782,6.033,28.262,16.135c7.761,12.084,0.219,31.029-8.202,40.055L62.434,118.906z M35.509,21.343
	c-7.131,0-13.674,3.824-17.951,10.497c-3.631,5.656,0.613,18.781,6.634,25.56l38.476,43.324l40.933-43.798
	c6.119-6.56,10.479-19.422,6.844-25.082c-4.21-6.577-10.92-10.5-17.949-10.5c-12.334,0-22.364,11.642-22.364,25.952H57.879
	C57.879,32.985,47.843,21.343,35.509,21.343z"/>
</svg>
