<?xml version="1.0" encoding="utf-8"?>
<!-- Generator: Adobe Illustrator 16.0.0, SVG Export Plug-In . SVG Version: 6.00 Build 0)  -->
<!DOCTYPE svg PUBLIC "-//W3C//DTD SVG 1.1//EN" "http://www.w3.org/Graphics/SVG/1.1/DTD/svg11.dtd">
<svg version="1.1" id="Layer_1" xmlns="http://www.w3.org/2000/svg" xmlns:xlink="http://www.w3.org/1999/xlink" x="0px" y="0px"
	 width="128px" height="128px" viewBox="0 0 128 128" enable-background="new 0 0 128 128" xml:space="preserve">
<path fill="#FFFFFF" d="M117.309,127c-2.577,0-5.071-1.061-6.818-2.882L84.52,98.223c-8.856,6.13-19.459,9.393-30.211,9.393
	C24.85,107.615,1,83.759,1,54.308C1,24.85,24.85,1,54.308,1c29.458,0,53.307,23.85,53.307,53.308
	c0,10.752-3.256,21.349-9.393,30.211L124.2,110.49c1.739,1.74,2.8,4.235,2.8,6.818C127,122.609,122.609,127,117.309,127z
	 M54.308,20.385c-18.705,0-33.923,15.218-33.923,33.923c0,18.698,15.218,33.922,33.923,33.922c18.705,0,33.922-15.225,33.922-33.922
	C88.23,35.603,73.013,20.385,54.308,20.385z"/>
</svg>
