<?xml version="1.0" encoding="utf-8"?>
<!-- Generator: Adobe Illustrator 16.0.0, SVG Export Plug-In . SVG Version: 6.00 Build 0)  -->
<!DOCTYPE svg PUBLIC "-//W3C//DTD SVG 1.1//EN" "http://www.w3.org/Graphics/SVG/1.1/DTD/svg11.dtd">
<svg version="1.1" id="Layer_1" xmlns="http://www.w3.org/2000/svg" xmlns:xlink="http://www.w3.org/1999/xlink" x="0px" y="0px"
	 width="128px" height="128px" viewBox="0 0 128 128" enable-background="new 0 0 128 128" xml:space="preserve">
<path d="M125.349,114.152L95.587,84.39c7.048-8.903,11.438-19.992,11.438-32.201C107.025,23.412,83.613,0,54.841,0
	C26.063,0,2.651,23.412,2.651,52.188c0,28.778,23.412,52.188,52.189,52.188c9.463,0,18.232-2.725,25.894-7.152L111.501,128
	L125.349,114.152z M22.238,52.188c0-17.975,14.628-32.603,32.603-32.603c17.976,0,32.598,14.628,32.598,32.603
	c0,17.976-14.622,32.603-32.598,32.603C36.866,84.791,22.238,70.164,22.238,52.188z"/>
</svg>
